# xmcd
#
# Track frame offsets: 
#        150
#        17220
#        32705
#        52682
#        74820
#        98467
#        114920
#        132520
#        156634
#        171097
#        188490
#        212702
#
# Disc length: 3062 seconds
#
# Revision: 1
# Processed by: cddbd v1.5.1PL0 Copyright (c) Steve Scherf et al.
# Submitted via: ExactAudioCopy v0.95a5
#
DISCID=a10bf40c
DTITLE=Sensational Nightingales - Greatest Hits
DYEAR=1986
DGENRE=Gospel
TTITLE0=At the Meeting
TTITLE1=It's Gonna Rain
TTITLE2=Don't Put Off Today
TTITLE3=He Just Hung There
TTITLE4=Saints Hold On
TTITLE5=Let's Get Ready for the Resurrection
TTITLE6=Prodigal Son
TTITLE7=Standing at the Judgement
TTITLE8=Hard Headed Jonah
TTITLE9=I Surrender All
TTITLE10=Because He Lives
TTITLE11=Remind Me Dear Lord
EXTD=
EXTT0=
EXTT1=
EXTT2=
EXTT3=
EXTT4=
EXTT5=
EXTT6=
EXTT7=
EXTT8=
EXTT9=
EXTT10=
EXTT11=
PLAYORDER=
